<?xml version="1.0" ?><svg viewBox="0 0 32 32" xmlns="http://www.w3.org/2000/svg"><title/><g data-name="20-igtv" id="_20-igtv"><path d="M24.91,5H18.42l2.29-2.29a1,1,0,1,0-1.42-1.42L16,4.59l-3.29-3.3a1,1,0,0,0-1.42,1.42L13.58,5H7.09A4.1,4.1,0,0,0,3,9.09V26.91A4.1,4.1,0,0,0,7.09,31H24.91A4.1,4.1,0,0,0,29,26.91V9.09A4.1,4.1,0,0,0,24.91,5ZM27,26.91A2.1,2.1,0,0,1,24.91,29H7.09A2.1,2.1,0,0,1,5,26.91V9.09A2.1,2.1,0,0,1,7.09,7H24.91A2.1,2.1,0,0,1,27,9.09Z"/><path d="M16,21a1,1,0,0,1-.53-.15A1,1,0,0,1,15,20V17.44l-6.65,2.5a1,1,0,0,1-.7-1.88l8-3A1,1,0,0,1,17,16v2.38l6.55-3.27a1,1,0,1,1,.9,1.78l-8,4A1,1,0,0,1,16,21Z"/></g></svg>